<?xml version="1.0" encoding="UTF-8"?>
<svg version="1.1" xmlns="http://www.w3.org/2000/svg" width="500" height="500">
<path d="M0 0 C165 0 330 0 500 0 C500 165 500 330 500 500 C335 500 170 500 0 500 C0 335 0 170 0 0 Z " fill="#FEFEFE" transform="translate(0,0)"/>
<path d="M0 0 C0 7.59 0 15.18 0 23 C-2.64 23.99 -5.28 24.98 -8 26 C-12.82434441 31.02963566 -14.3126258 33.91490329 -14.21484375 40.68359375 C-13.79109923 45.25233015 -11.93275933 48.06724067 -8.75 51.25 C-5.49870605 53.50217188 -5.49870605 53.50217188 1 55 C1 61.6 1 68.2 1 75 C-1.31 75 -3.62 75 -6 75 C-6.350625 74.030625 -6.70125 73.06125 -7.0625 72.0625 C-8.74355239 68.67160126 -8.74355239 68.67160126 -12.4375 67.9375 C-16.42162656 68.00739696 -17.00173662 68.70133141 -20 71 C-24.63908542 70.26751283 -26.98621519 67.07684239 -29.86328125 63.65625 C-31 62 -31 62 -31 60 C-30.2575 59.4121875 -30.2575 59.4121875 -29.5 58.8125 C-27.67382709 56.93619326 -27.67382709 56.93619326 -27.5625 53.5 C-27.65190397 50.0056043 -27.65190397 50.0056043 -29.75 48.125 C-32.20789169 46.794368 -32.20789169 46.794368 -36 46 C-36 41.38 -36 36.76 -36 32 C-34.35 31.34 -32.7 30.68 -31 30 C-28.64401371 28.06994771 -28.64401371 28.06994771 -28.6875 24.625 C-29.01794318 20.7918591 -29.63223879 19.83631554 -32 17 C-30.73657512 15.51450044 -29.4639897 14.03678811 -28.1875 12.5625 C-27.12595703 11.32693359 -27.12595703 11.32693359 -26.04296875 10.06640625 C-24 8 -24 8 -21 7 C-20.505 7.7425 -20.505 7.7425 -20 8.5 C-16.72233698 10.95824727 -14.0234816 10.38318872 -10 10 C-7.80235949 7.15450649 -7.80235949 7.15450649 -7.5 3.875 C-7.335 2.92625 -7.17 1.9775 -7 1 C-5 0 -5 0 0 0 Z " fill="#F2623C" transform="translate(86,215)"/>
<path d="M0 0 C3.62221751 0.60370292 4.79551272 1.61720894 7 4.5 C7 5.16 7 5.82 7 6.5 C8.051875 6.273125 9.10375 6.04625 10.1875 5.8125 C14.48043713 5.46061991 15.74327158 5.78605965 19 8.5 C21.53476416 11.64660379 22.01611125 13.03277383 21.875 17.125 C21.91625 18.23875 21.9575 19.3525 22 20.5 C24.35589996 22.38051585 24.35589996 22.38051585 27 23.5 C28.26237731 26.02475462 28.09856404 27.81200466 28.0625 30.625 C28.05347656 31.53507812 28.04445312 32.44515625 28.03515625 33.3828125 C28.02355469 34.08148438 28.01195312 34.78015625 28 35.5 C28.66 35.5 29.32 35.5 30 35.5 C32.23465229 38.85197843 32.27108649 40.07791246 32.25 44 C32.25773437 45.43859375 32.25773437 45.43859375 32.265625 46.90625 C32 49.5 32 49.5 30 52.5 C29.90833032 54.85071037 29.90833032 54.85071037 30.125 57.375 C30.17558807 60.84534176 30.08649898 62.32700203 28.5 65.5 C25.58333318 67.83333345 23.42393209 68.21595083 19.83203125 68.90234375 C17.68654829 69.40492894 17.68654829 69.40492894 16.125 72.0625 C15.75375 72.866875 15.3825 73.67125 15 74.5 C12.59454362 75.70272819 11.05003047 75.60071472 8.375 75.5625 C7.55773437 75.55347656 6.74046875 75.54445313 5.8984375 75.53515625 C5.27195312 75.52355469 4.64546875 75.51195312 4 75.5 C4.66 73.52 5.32 71.54 6 69.5 C6.66 69.5 7.32 69.5 8 69.5 C8 70.82 8 72.14 8 73.5 C10.97 72.51 10.97 72.51 14 71.5 C15.19988045 66.21800407 15.19988045 66.21800407 13 61.5 C11.02 62.16 9.04 62.82 7 63.5 C7.66 59.87 8.32 56.24 9 52.5 C9.66 52.5 10.32 52.5 11 52.5 C11.226875 53.386875 11.45375 54.27375 11.6875 55.1875 C13.17427787 58.93984415 15.14173187 60.71694945 18 63.5 C18 64.49 18 65.48 18 66.5 C22.33229715 65.6395861 22.33229715 65.6395861 26 63.5 C26.23075082 62.15252916 26.41153063 60.79622435 26.5625 59.4375 C26.706875 58.138125 26.85125 56.83875 27 55.5 C25.9275 55.726875 24.855 55.95375 23.75 56.1875 C20 56.5 20 56.5 17.875 55.1875 C17.25625 54.630625 16.6375 54.07375 16 53.5 C14.35202764 52.78837557 12.68834592 52.10968047 11 51.5 C12 49.5 12 49.5 14.5 48.5625 C15.325 48.211875 16.15 47.86125 17 47.5 C17.33 46.51 17.66 45.52 18 44.5 C18.66 44.5 19.32 44.5 20 44.5 C19.70703125 46.55078125 19.4140625 48.6015625 19.12109375 50.65234375 C19.08113281 51.26207031 19.04117188 51.87179687 19 52.5 C20.04342781 53.73836166 20.04342781 53.73836166 22.3125 53.875 C25.15132515 53.72096106 25.15132515 53.72096106 27.3125 51.5625 C29.577592 47.45177748 29.83375267 44.09853275 29 39.5 C27.60314994 36.8530128 27.60314994 36.8530128 25 35.5 C21.35278304 34.69234122 21.35278304 34.69234122 18 34.5 C18 35.49 18 36.48 18 37.5 C17.34 37.5 16.68 37.5 16 37.5 C15.67 34.86 15.34 32.22 15 29.5 C20.445 30.985 20.445 30.985 26 32.5 C25.34 29.86 24.68 27.22 24 24.5 C22.68 24.17 21.36 23.84 20 23.5 C17.9600281 24.86323743 17.9600281 24.86323743 16 26.5 C15.29875 26.644375 14.5975 26.78875 13.875 26.9375 C11.88411884 27.33423307 11.88411884 27.33423307 10.8125 29.0625 C9.6602417 32.5192749 9.36255408 35.87445916 9 39.5 C8.34 39.5 7.68 39.5 7 39.5 C6.773125 38.22125 6.54625 36.9425 6.3125 35.625 C5.83899916 33.43067868 5.83899916 33.43067868 5 31.5 C2.51686936 29.90311361 2.51686936 29.90311361 0 29.5 C0 28.84 0 28.18 0 27.5 C5.75 28.375 5.75 28.375 8 29.5 C8 26.86 8 24.22 8 21.5 C7.01 21.83 6.02 22.16 5 22.5 C3.43881572 22.56740865 1.8749748 22.58514456 0.3125 22.5625 C-0.89986328 22.54896484 -0.89986328 22.54896484 -2.13671875 22.53515625 C-2.75160156 22.52355469 -3.36648437 22.51195312 -4 22.5 C-4.02892857 26.45831809 -4.04677427 30.41660917 -4.0625 34.375 C-4.07087891 35.50292969 -4.07925781 36.63085938 -4.08789062 37.79296875 C-4.09111328 38.86933594 -4.09433594 39.94570312 -4.09765625 41.0546875 C-4.10551147 42.54718018 -4.10551147 42.54718018 -4.11352539 44.06982422 C-4.1639415 46.50960773 -4.1639415 46.50960773 -3 48.5 C-1.68 48.5 -0.36 48.5 1 48.5 C1.33 46.85 1.66 45.2 2 43.5 C2.66 43.5 3.32 43.5 4 43.5 C3.95875 44.4075 3.9175 45.315 3.875 46.25 C3.99531556 49.3782046 4.3914708 50.88614006 6 53.5 C4.68 53.17 3.36 52.84 2 52.5 C2 51.84 2 51.18 2 50.5 C-1.62793998 52.36566488 -1.62793998 52.36566488 -4 55.5 C-4.0984342 58.32274537 -4.13898292 61.11528097 -4.125 63.9375 C-4.12886719 64.71416016 -4.13273437 65.49082031 -4.13671875 66.29101562 C-4.13099989 69.61081172 -4.05668831 72.32993506 -3 75.5 C-3.99 75.5 -4.98 75.5 -6 75.5 C-7.34063315 71.47810055 -7.18417125 67.77337478 -7.1875 63.5625 C-7.19974609 62.75103516 -7.21199219 61.93957031 -7.22460938 61.10351562 C-7.22654297 60.31783203 -7.22847656 59.53214844 -7.23046875 58.72265625 C-7.23457764 58.00859619 -7.23868652 57.29453613 -7.24291992 56.55883789 C-7 54.5 -7 54.5 -5.8605957 52.48608398 C-5.57659912 51.83067627 -5.29260254 51.17526855 -5 50.5 C-5.85744343 48.53784016 -5.85744343 48.53784016 -7 46.5 C-7.24291992 43.90625 -7.24291992 43.90625 -7.23046875 41 C-7.22853516 39.948125 -7.22660156 38.89625 -7.22460938 37.8125 C-7.21236328 36.719375 -7.20011719 35.62625 -7.1875 34.5 C-7.18685547 33.406875 -7.18621094 32.31375 -7.18554688 31.1875 C-7.14064111 23.04458729 -7.14064111 23.04458729 -6.42700195 20.28125 C-5.77659483 18.41064571 -5.77659483 18.41064571 -7 16.5 C-7.17369832 14.54660577 -7.26696102 12.58557296 -7.3125 10.625 C-7.34988281 9.57570312 -7.38726562 8.52640625 -7.42578125 7.4453125 C-6.75039315 2.77336181 -4.60465234 0.76744206 0 0 Z " fill="#F9AA57" transform="translate(95,214.5)"/>
<path d="M0 0 C2.31 0 4.62 0 7 0 C7 13.2 7 26.4 7 40 C4.36 40 1.72 40 -1 40 C-1.33 39.34 -1.66 38.68 -2 38 C-2.99 38.66 -3.98 39.32 -5 40 C-9.47208083 40.72022276 -12.98669453 40.58211165 -16.9375 38.3125 C-21.14261799 33.59767074 -21.4311352 28.82470666 -21.32421875 22.73046875 C-20.83254935 18.58978307 -19.48363402 16.33516569 -17 13 C-13.92745875 10.95163917 -13.12831715 10.70543507 -9.625 10.6875 C-8.49964844 10.66236328 -8.49964844 10.66236328 -7.3515625 10.63671875 C-5 11 -5 11 0 14 C0 9.38 0 4.76 0 0 Z " fill="#0C0C0C" transform="translate(278,230)"/>
<path d="M0 0 C2.31 0 4.62 0 7 0 C7.33 0.99 7.66 1.98 8 3 C8.40476562 2.51402344 8.80953125 2.02804688 9.2265625 1.52734375 C11.96040588 -0.8271337 14.29616804 -0.47433816 17.77734375 -0.35546875 C21.09683325 0.17541621 22.75921614 1.55550852 25 4 C28.0704677 8.90842372 27.48604482 14.41422341 27 20 C25.47565341 24.34438777 23.88797942 26.59577244 20 29 C17.4921875 29.36328125 17.4921875 29.36328125 14.875 29.3125 C14.00617188 29.30863281 13.13734375 29.30476563 12.2421875 29.30078125 C10 29 10 29 8 27 C7.67 31.62 7.34 36.24 7 41 C4.69 41 2.38 41 0 41 C0 27.47 0 13.94 0 0 Z " fill="#070707" transform="translate(420,241)"/>
<path d="M0 0 C2.31 0 4.62 0 7 0 C7.33 0.99 7.66 1.98 8 3 C8.40476563 2.51402344 8.80953125 2.02804688 9.2265625 1.52734375 C11.96040588 -0.8271337 14.29616804 -0.47433816 17.77734375 -0.35546875 C21.09683325 0.17541621 22.75921614 1.55550852 25 4 C28.0704677 8.90842372 27.48604482 14.41422341 27 20 C25.47565341 24.34438777 23.88797942 26.59577244 20 29 C17.4921875 29.36328125 17.4921875 29.36328125 14.875 29.3125 C14.00617188 29.30863281 13.13734375 29.30476563 12.2421875 29.30078125 C10 29 10 29 8 27 C7.67 31.62 7.34 36.24 7 41 C4.69 41 2.38 41 0 41 C0 27.47 0 13.94 0 0 Z " fill="#070707" transform="translate(209,241)"/>
<path d="M0 0 C3.17625 -0.0825 6.3525 -0.165 9.625 -0.25 C10.6145166 -0.28641602 11.6040332 -0.32283203 12.62353516 -0.36035156 C18.40954762 -0.43286678 21.5990505 0.15451015 26 4 C27.60580326 7.21160652 27.62661669 10.52694366 27 14 C24.5 16.875 24.5 16.875 22 19 C21.80109908 21.23876684 21.80109908 21.23876684 23.8125 23.4375 C26.86320645 27.79099923 27.8008978 32.89473154 29 38 C26.36 38 23.72 38 21 38 C20.61521484 36.51886719 20.61521484 36.51886719 20.22265625 35.0078125 C18.45045967 27.79085509 18.45045967 27.79085509 13.6640625 22.625 C10.92398293 21.99938515 10.92398293 21.99938515 7 22 C7 27.28 7 32.56 7 38 C4.69 38 2.38 38 0 38 C0 25.46 0 12.92 0 0 Z " fill="#040404" transform="translate(294,232)"/>
<path d="M0 0 C3.196875 -0.061875 6.39375 -0.12375 9.6875 -0.1875 C11.18543091 -0.22846802 11.18543091 -0.22846802 12.71362305 -0.27026367 C17.60343329 -0.31608255 21.0952382 -0.30402922 25 3 C27.46751239 6.70126859 27.30721156 8.62223532 27 13 C25.83982868 16.48051395 24.01913806 17.98724129 21 20 C21.61359375 20.68449219 22.2271875 21.36898437 22.859375 22.07421875 C25.21409288 25.29261965 26.16887705 27.98995813 27.25 31.8125 C27.58515625 32.97394531 27.9203125 34.13539063 28.265625 35.33203125 C28.50796875 36.21246094 28.7503125 37.09289062 29 38 C26.36 38 23.72 38 21 38 C20.16260219 35.8765984 19.33019717 33.7512272 18.5 31.625 C18.0359375 30.44164062 17.571875 29.25828125 17.09375 28.0390625 C16 25 16 25 16 23 C13.03 22.67 10.06 22.34 7 22 C7 27.28 7 32.56 7 38 C4.69 38 2.38 38 0 38 C0 25.46 0 12.92 0 0 Z " fill="#060606" transform="translate(144,232)"/>
<path d="M0 0 C3.00197464 1.80118478 4.45166366 2.90332732 6 6 C6.13677734 9.33736713 6.04283944 12.6585233 6 16 C-0.27 16 -6.54 16 -13 16 C-12.34 17.98 -11.68 19.96 -11 22 C-7.37 22 -3.74 22 0 22 C0 21.34 0 20.68 0 20 C2.16874252 20.50603992 3.99967627 20.99983813 6 22 C4.53284672 26.6459854 4.53284672 26.6459854 2.2890625 28.13671875 C-2.31401003 29.87268979 -7.17795876 29.63821134 -12 29 C-15.98348877 27.09187847 -18.36014992 24.05570063 -20 20 C-20.6842501 14.73286554 -20.63405953 10.31508642 -18.3125 5.5 C-12.90885716 -0.34177604 -7.77240549 -1.0853359 0 0 Z " fill="#090909" transform="translate(347,241)"/>
<path d="M0 0 C4.51315789 2.02631579 4.51315789 2.02631579 6 5 C6.08308638 6.37548156 6.10736016 7.75485796 6.09765625 9.1328125 C6.09443359 9.93847656 6.09121094 10.74414062 6.08789062 11.57421875 C6.07951172 12.41597656 6.07113281 13.25773438 6.0625 14.125 C6.05798828 14.97449219 6.05347656 15.82398438 6.04882812 16.69921875 C6.03702874 18.79950909 6.01909306 20.8997633 6 23 C7.32 23 8.64 23 10 23 C10 24.98 10 26.96 10 29 C2.49230769 29.36923077 2.49230769 29.36923077 0 27.5 C-0.33 27.005 -0.66 26.51 -1 26 C-1.60521484 26.72896484 -1.60521484 26.72896484 -2.22265625 27.47265625 C-4.96909409 29.83278195 -7.3430765 29.48206122 -10.8359375 29.33984375 C-13 29 -13 29 -15.5625 27.5 C-17.52742759 24.08273462 -18.02115805 20.84435972 -17 17 C-14.18469301 13.3953546 -11.63997804 12.29523287 -7.25 11.25 C-6.26515625 11.00765625 -5.2803125 10.7653125 -4.265625 10.515625 C-3.51796875 10.34546875 -2.7703125 10.1753125 -2 10 C-2 9.01 -2 8.02 -2 7 C-8.31268603 6.62447835 -8.31268603 6.62447835 -14 9 C-15.5 7.625 -15.5 7.625 -17 6 C-17 5.34 -17 4.68 -17 4 C-11.34921339 0.06901801 -6.8659556 -0.98748938 0 0 Z " fill="#0A0A0A" transform="translate(405,241)"/>
<path d="M0 0 C4.51315789 2.02631579 4.51315789 2.02631579 6 5 C6.08308638 6.37548156 6.10736016 7.75485796 6.09765625 9.1328125 C6.09443359 9.93847656 6.09121094 10.74414062 6.08789062 11.57421875 C6.07951172 12.41597656 6.07113281 13.25773438 6.0625 14.125 C6.05798828 14.97449219 6.05347656 15.82398438 6.04882812 16.69921875 C6.03702874 18.79950909 6.01909306 20.8997633 6 23 C7.32 23 8.64 23 10 23 C10 24.98 10 26.96 10 29 C2.49230769 29.36923077 2.49230769 29.36923077 0 27.5 C-0.33 27.005 -0.66 26.51 -1 26 C-1.60521484 26.72896484 -1.60521484 26.72896484 -2.22265625 27.47265625 C-4.96909409 29.83278195 -7.3430765 29.48206122 -10.8359375 29.33984375 C-13 29 -13 29 -15.5625 27.5 C-17.52742759 24.08273462 -18.02115805 20.84435972 -17 17 C-14.18469301 13.3953546 -11.63997804 12.29523287 -7.25 11.25 C-6.26515625 11.00765625 -5.2803125 10.7653125 -4.265625 10.515625 C-3.51796875 10.34546875 -2.7703125 10.1753125 -2 10 C-2 9.01 -2 8.02 -2 7 C-8.31268603 6.62447835 -8.31268603 6.62447835 -14 9 C-15.5 7.625 -15.5 7.625 -17 6 C-17 5.34 -17 4.68 -17 4 C-11.34921339 0.06901801 -6.8659556 -0.98748938 0 0 Z " fill="#0A0A0A" transform="translate(194,241)"/>
<path d="M0 0 C2.06131195 1.80364796 3.03441599 3.20436943 4 5.75 C0.25 8.75 0.25 8.75 -2 8.75 C-2.4125 8.255 -2.825 7.76 -3.25 7.25 C-5.00738635 5.45509661 -5.00738635 5.45509661 -8.0625 5.4375 C-11.12061828 5.45172688 -11.12061828 5.45172688 -13 7.75 C-13.31923475 10.08560151 -13.31923475 10.08560151 -13.25 12.6875 C-13.25515625 13.56277344 -13.2603125 14.43804687 -13.265625 15.33984375 C-13.15833837 18.01105634 -13.15833837 18.01105634 -11 20.75 C-7.5 21.25 -7.5 21.25 -4 20.75 C-3.34 19.76 -2.68 18.77 -2 17.75 C-0.35 18.08 1.3 18.41 3 18.75 C3.33 20.07 3.66 21.39 4 22.75 C1.13327422 25.93525086 -0.60521975 27.52224236 -4.89453125 28.22265625 C-9.48567794 28.3528614 -12.9341457 28.29380321 -17.0625 26.1875 C-20.808878 21.47431478 -22.60758717 16.73158602 -22.3515625 10.73828125 C-21.54946863 6.20199482 -19.27602915 2.91343834 -15.875 -0.1875 C-10.58841579 -2.14123764 -5.20856512 -2.17023547 0 0 Z " fill="#0B0B0B" transform="translate(380,242.25)"/>
<path d="M0 0 C1.3921875 0.3403125 1.3921875 0.3403125 2.8125 0.6875 C3.9375 6.4375 3.9375 6.4375 2.8125 8.6875 C3.3075 8.1925 3.8025 7.6975 4.3125 7.1875 C7.80617105 5.09129737 10.83442047 4.82340895 14.8125 5.6875 C17.81243115 8.23744148 18.66730459 9.81632756 19.3125 13.6875 C18.68451338 17.45541972 17.61699388 19.11039752 14.8125 21.6875 C12.0625 22 12.0625 22 9.8125 21.6875 C8.34174754 17.27524263 7.44365642 14.20468381 8.8125 9.6875 C8.1525 9.6875 7.4925 9.6875 6.8125 9.6875 C6.6578125 11.110625 6.6578125 11.110625 6.5 12.5625 C5.8125 15.6875 5.8125 15.6875 2.8125 17.6875 C-0.29939582 18.1662532 -1.75205859 17.93464242 -4.5 16.375 C-7.14208488 12.16723519 -7.00761274 7.52690399 -6.1875 2.6875 C-4.09567817 -0.24105056 -3.71665812 -0.36437825 0 0 Z " fill="#FEFAF7" transform="translate(96.1875,217.3125)"/>
<path d="M0 0 C3.62221751 0.60370292 4.79551272 1.61720894 7 4.5 C7 5.16 7 5.82 7 6.5 C7.66 6.5 8.32 6.5 9 6.5 C8.1875 8.4375 8.1875 8.4375 7 10.5 C6.01 10.83 5.02 11.16 4 11.5 C4 8.86 4 6.22 4 3.5 C1.08347826 3.33318891 1.08347826 3.33318891 -2 3.5 C-4.60186108 6.10186108 -4.29810177 7.32354355 -4.3125 10.9375 C-4.32925781 11.90558594 -4.34601563 12.87367188 -4.36328125 13.87109375 C-4.21370415 16.51820846 -4.21370415 16.51820846 -2.6484375 18.3046875 C-0.51091516 19.85464446 1.41042842 20.1500579 4 20.5 C4 21.16 4 21.82 4 22.5 C1.36 22.5 -1.28 22.5 -4 22.5 C-4.02892857 26.45831809 -4.04677427 30.41660917 -4.0625 34.375 C-4.07087891 35.50292969 -4.07925781 36.63085938 -4.08789062 37.79296875 C-4.09111328 38.86933594 -4.09433594 39.94570312 -4.09765625 41.0546875 C-4.10551147 42.54718018 -4.10551147 42.54718018 -4.11352539 44.06982422 C-4.1639415 46.50960773 -4.1639415 46.50960773 -3 48.5 C-1.68 48.5 -0.36 48.5 1 48.5 C1.33 46.85 1.66 45.2 2 43.5 C2.66 43.5 3.32 43.5 4 43.5 C3.95875 44.4075 3.9175 45.315 3.875 46.25 C3.99531556 49.3782046 4.3914708 50.88614006 6 53.5 C4.68 53.17 3.36 52.84 2 52.5 C2 51.84 2 51.18 2 50.5 C-1.62793998 52.36566488 -1.62793998 52.36566488 -4 55.5 C-4.0984342 58.32274537 -4.13898292 61.11528097 -4.125 63.9375 C-4.12886719 64.71416016 -4.13273437 65.49082031 -4.13671875 66.29101562 C-4.13099989 69.61081172 -4.05668831 72.32993506 -3 75.5 C-3.99 75.5 -4.98 75.5 -6 75.5 C-7.34063315 71.47810055 -7.18417125 67.77337478 -7.1875 63.5625 C-7.19974609 62.75103516 -7.21199219 61.93957031 -7.22460938 61.10351562 C-7.22654297 60.31783203 -7.22847656 59.53214844 -7.23046875 58.72265625 C-7.23457764 58.00859619 -7.23868652 57.29453613 -7.24291992 56.55883789 C-7 54.5 -7 54.5 -5.8605957 52.48608398 C-5.57659912 51.83067627 -5.29260254 51.17526855 -5 50.5 C-5.85744343 48.53784016 -5.85744343 48.53784016 -7 46.5 C-7.24291992 43.90625 -7.24291992 43.90625 -7.23046875 41 C-7.22853516 39.948125 -7.22660156 38.89625 -7.22460938 37.8125 C-7.21236328 36.719375 -7.20011719 35.62625 -7.1875 34.5 C-7.18685547 33.406875 -7.18621094 32.31375 -7.18554688 31.1875 C-7.14064111 23.04458729 -7.14064111 23.04458729 -6.42700195 20.28125 C-5.77659483 18.41064571 -5.77659483 18.41064571 -7 16.5 C-7.17369832 14.54660577 -7.26696102 12.58557296 -7.3125 10.625 C-7.34988281 9.57570312 -7.38726562 8.52640625 -7.42578125 7.4453125 C-6.75039315 2.77336181 -4.60465234 0.76744206 0 0 Z " fill="#F58344" transform="translate(95,214.5)"/>
<path d="M0 0 C2.31 0 4.62 0 7 0 C7 9.57 7 19.14 7 29 C4.69 29 2.38 29 0 29 C0 19.43 0 9.86 0 0 Z " fill="#080808" transform="translate(243,241)"/>
<path d="M0 0 C3.0625 0.5 3.0625 0.5 5.4375 1.9375 C7.84476912 5.73357822 7.70463079 9.12548398 7.0625 13.5 C6 16.0625 6 16.0625 4.0625 17.5 C0.41307669 18.02134619 -1.84372489 18.31151056 -4.875 16.0625 C-6.47743249 12.19780987 -6.48198293 8.62143332 -5.9375 4.5 C-4.4251683 1.05524445 -3.71278501 0.63196341 0 0 Z " fill="#F6F6F6" transform="translate(432.9375,246.5)"/>
<path d="M0 0 C3.0625 0.5 3.0625 0.5 5.4375 1.9375 C7.84476912 5.73357822 7.70463079 9.12548398 7.0625 13.5 C6 16.0625 6 16.0625 4.0625 17.5 C0.41307669 18.02134619 -1.84372489 18.31151056 -4.875 16.0625 C-6.47743249 12.19780987 -6.48198293 8.62143332 -5.9375 4.5 C-4.4251683 1.05524445 -3.71278501 0.63196341 0 0 Z " fill="#F6F6F6" transform="translate(221.9375,246.5)"/>
<path d="M0 0 C1.6640625 1.1796875 1.6640625 1.1796875 3 3 C3.3984375 5.59375 3.3984375 5.59375 3.375 8.5 C3.38273437 9.4590625 3.39046875 10.418125 3.3984375 11.40625 C3 14 3 14 1.69921875 15.8203125 C-1.13879342 17.7906106 -3.67589127 17.36263004 -7 17 C-9.22264871 13.66602694 -9.29675463 12.40485109 -9.3125 8.5 C-9.32925781 7.5409375 -9.34601563 6.581875 -9.36328125 5.59375 C-9 3 -9 3 -7.66796875 1.1796875 C-5.07505142 -0.65417909 -3.08007444 -0.3850093 0 0 Z " fill="#FAFAFA" transform="translate(274,247)"/>
<path d="M0 0 C9.625 -0.25 9.625 -0.25 13 2 C12.125 8.875 12.125 8.875 11 10 C9.14712498 10.07226502 7.29166122 10.0838122 5.4375 10.0625 C4.42558594 10.05347656 3.41367187 10.04445312 2.37109375 10.03515625 C1.58863281 10.02355469 0.80617188 10.01195312 0 10 C0 6.7 0 3.4 0 0 Z " fill="#EEEEEE" transform="translate(301,238)"/>
<path d="M0 0 C1.60875 -0.04125 3.2175 -0.0825 4.875 -0.125 C5.77992188 -0.14820313 6.68484375 -0.17140625 7.6171875 -0.1953125 C10 0 10 0 12 2 C12.125 5.625 12.125 5.625 12 9 C9.47524538 10.26237731 7.68799534 10.09856404 4.875 10.0625 C3.26625 10.041875 1.6575 10.02125 0 10 C0 6.7 0 3.4 0 0 Z " fill="#F7F7F7" transform="translate(151,238)"/>
<path d="M0 0 C0.66 0 1.32 0 2 0 C2.3403125 1.3303125 2.3403125 1.3303125 2.6875 2.6875 C4.17427787 6.43984415 6.14173187 8.21694945 9 11 C9 11.99 9 12.98 9 14 C13.455 13.505 13.455 13.505 18 13 C15 16 15 16 12 16.375 C8.79497176 16.68532168 8.79497176 16.68532168 7.25 19.5 C6.8375 20.325 6.425 21.15 6 22 C3.59454362 23.20272819 2.05003047 23.10071472 -0.625 23.0625 C-1.85089844 23.04896484 -1.85089844 23.04896484 -3.1015625 23.03515625 C-3.72804688 23.02355469 -4.35453125 23.01195312 -5 23 C-4.34 21.02 -3.68 19.04 -3 17 C-2.34 17 -1.68 17 -1 17 C-1 18.32 -1 19.64 -1 21 C0.98 20.34 2.96 19.68 5 19 C6.19988045 13.71800407 6.19988045 13.71800407 4 9 C2.02 9.66 0.04 10.32 -2 11 C-1.34 7.37 -0.68 3.74 0 0 Z " fill="#F9A151" transform="translate(104,267)"/>
<path d="M0 0 C0.66 0 1.32 0 2 0 C1.95875 0.9075 1.9175 1.815 1.875 2.75 C1.99531556 5.8782046 2.3914708 7.38614006 4 10 C2.68 9.67 1.36 9.34 0 9 C0 8.34 0 7.68 0 7 C-3.62793998 8.86566488 -3.62793998 8.86566488 -6 12 C-6.0984342 14.82274537 -6.13898292 17.61528097 -6.125 20.4375 C-6.12886719 21.21416016 -6.13273437 21.99082031 -6.13671875 22.79101562 C-6.13099989 26.11081172 -6.05668831 28.82993506 -5 32 C-5.99 32 -6.98 32 -8 32 C-9.34063315 27.97810055 -9.18417125 24.27337478 -9.1875 20.0625 C-9.19974609 19.25103516 -9.21199219 18.43957031 -9.22460938 17.60351562 C-9.22654297 16.81783203 -9.22847656 16.03214844 -9.23046875 15.22265625 C-9.23457764 14.50859619 -9.23868652 13.79453613 -9.24291992 13.05883789 C-9 11 -9 11 -7.9309082 8.93920898 C-6.66403514 6.84048062 -6.66403514 6.84048062 -7.875 3.75 C-8.24625 2.8425 -8.6175 1.935 -9 1 C-8.4225 1.66 -7.845 2.32 -7.25 3 C-5.00346023 5.44290923 -5.00346023 5.44290923 -1 5 C-0.67 3.35 -0.34 1.7 0 0 Z " fill="#F68E52" transform="translate(97,258)"/>
<path d="M0 0 C2.9375 0.8125 2.9375 0.8125 4.9375 3.8125 C4.9375 4.8025 4.9375 5.7925 4.9375 6.8125 C0.9775 6.8125 -2.9825 6.8125 -7.0625 6.8125 C-6.7325 5.1625 -6.4025 3.5125 -6.0625 1.8125 C-3.0625 -0.1875 -3.0625 -0.1875 0 0 Z " fill="#DCDCDC" transform="translate(342.0625,246.1875)"/>
<path d="M0 0 C0.36190476 5.42857143 0.36190476 5.42857143 -1.1875 7.875 C-3.58590175 9.36366316 -5.22806071 9.29178308 -8 9 C-9 8 -9 8 -9.0625 5.4375 C-9.041875 4.633125 -9.02125 3.82875 -9 3 C-2.25 0 -2.25 0 0 0 Z " fill="#F6F6F6" transform="translate(404,256)"/>
<path d="M0 0 C0.36190476 5.42857143 0.36190476 5.42857143 -1.1875 7.875 C-3.58590175 9.36366316 -5.22806071 9.29178308 -8 9 C-9 8 -9 8 -9.0625 5.4375 C-9.041875 4.633125 -9.02125 3.82875 -9 3 C-2.25 0 -2.25 0 0 0 Z " fill="#F6F6F6" transform="translate(193,256)"/>
<path d="M0 0 C2.9375 0.1875 2.9375 0.1875 3.9375 1.1875 C4.125 3.625 4.125 3.625 3.9375 6.1875 C3.2775 6.8475 2.6175 7.5075 1.9375 8.1875 C-1.1875 7.8125 -1.1875 7.8125 -4.0625 7.1875 C-4.6875 4.8125 -4.6875 4.8125 -5.0625 2.1875 C-3.0625 0.1875 -3.0625 0.1875 0 0 Z " fill="#111111" transform="translate(247.0625,229.8125)"/>
<path d="M0 0 C7.36842105 0.36842105 7.36842105 0.36842105 10.4375 3.4375 C12.80861863 7.32613455 13.09932264 9.43115857 13 14 C12.34 14 11.68 14 11 14 C10.71125 12.906875 10.4225 11.81375 10.125 10.6875 C9.18106796 6.95986155 9.18106796 6.95986155 7 4 C3.43230448 3.26393501 3.43230448 3.26393501 0 3 C0 2.01 0 1.02 0 0 Z " fill="#F9AE64" transform="translate(104,220)"/>
<path d="M0 0 C6.875 3.75 6.875 3.75 8 6 C8.04022391 8.3329866 8.04320247 10.66706666 8 13 C7.34 13 6.68 13 6 13 C5.34 10.36 4.68 7.72 4 5 C0.10726708 3.55622572 0.10726708 3.55622572 -2.75 5.4375 C-3.4925 5.953125 -4.235 6.46875 -5 7 C-5.99 6.34 -6.98 5.68 -8 5 C-7.236875 4.731875 -6.47375 4.46375 -5.6875 4.1875 C-3.12619116 3.05575888 -1.80307062 2.08776599 0 0 Z " fill="#FAAB52" transform="translate(115,234)"/>
<path d="M0 0 C0.66 0 1.32 0 2 0 C1.979375 1.0725 1.95875 2.145 1.9375 3.25 C1.83459411 6.77808381 1.83459411 6.77808381 2.625 9.1875 C3.13936245 11.67358516 2.28423608 12.88478763 1 15 C0.67 13.02 0.34 11.04 0 9 C-1.32 9.33 -2.64 9.66 -4 10 C-4 9.01 -4 8.02 -4 7 C-3 6 -2 5 -1 4 C-0.28552357 1.89667109 -0.28552357 1.89667109 0 0 Z " fill="#F8A05B" transform="translate(103,227)"/>
<path d="M0 0 C0.66 0 1.32 0 2 0 C3.34516765 6.35897436 3.34516765 6.35897436 1.6875 9.4375 C0 11 0 11 -2 11 C-1.34 7.37 -0.68 3.74 0 0 Z " fill="#F9A968" transform="translate(104,267)"/>
<path d="M0 0 C1.7074998 1.28062485 3.37373596 2.61767557 5 4 C5 4.66 5 5.32 5 6 C5.66 6 6.32 6 7 6 C6.1875 7.9375 6.1875 7.9375 5 10 C4.01 10.33 3.02 10.66 2 11 C2 8.36 2 5.72 2 3 C1.34 3 0.68 3 0 3 C0 2.01 0 1.02 0 0 Z " fill="#F79751" transform="translate(97,215)"/>
<path d="M0 0 C0.66 0 1.32 0 2 0 C1.63803085 2.67857172 1.26012724 4.60980914 -0.25 6.875 C-2 8 -2 8 -4.6875 7.6875 C-5.450625 7.460625 -6.21375 7.23375 -7 7 C-6 5 -6 5 -3.5 4.0625 C-2.675 3.711875 -1.85 3.36125 -1 3 C-0.67 2.01 -0.34 1.02 0 0 Z " fill="#FAB26E" transform="translate(113,259)"/>
<path d="M0 0 C0.53625 0.474375 1.0725 0.94875 1.625 1.4375 C4.42842836 3.28186076 6.69620258 3.62456847 10 4 C9.67 4.66 9.34 5.32 9 6 C2.25 5.25 2.25 5.25 0 3 C0 2.01 0 1.02 0 0 Z " fill="#F9A54A" transform="translate(111,265)"/>
<path d="M0 0 C0.99 0 1.98 0 3 0 C3.25 5.625 3.25 5.625 1 9 C0.01 8.67 -0.98 8.34 -2 8 C-1.67 7.67 -1.34 7.34 -1 7 C-0.63239269 4.67182036 -0.29758419 2.3381615 0 0 Z " fill="#FBC379" transform="translate(122,271)"/>
</svg>
